<svg width="1150" height="1150" viewBox="0 0 1150 1150" fill="none" xmlns="http://www.w3.org/2000/svg">
<rect width="1150" height="1150" rx="200" fill="#141414"/>
<path d="M605.8 602.6C623 624.1 642.1 647.7 655.5 664.2C670.4 619.4 650.5 556.8 628.3 510C623 539.1 615.6 569.9 605.8 602.6Z" fill="#F2C94C"/>
<path d="M501 436.8C478.9 458 459.1 497.6 474 559.5C487.4 558.4 506.4 556.9 523.6 555.3C513.8 511.3 506.4 472 501 436.8Z" fill="#F2994A"/>
<path opacity="0.2" d="M548.6 657.3C425 182.7 526.7 142.4 565.1 126.2C603.5 186.8 705.1 344.4 581.4 676.2L548.6 657.3Z" fill="url(#paint0_linear)"/>
<path opacity="0.1" d="M585 630C461.4 155.5 563 115.1 601.5 98.9C639.9 159.5 741.5 317.1 617.8 648.9L585 630Z" fill="url(#paint1_linear)"/>
<path opacity="0.15" d="M581.4 676.2C705.1 344.4 603.5 186.8 565.1 126.2V666.8L581.4 676.2Z" fill="url(#paint2_linear)"/>
<path opacity="0.1" d="M601.9 293.3C601.9 322.2 584.9 335.8 563.9 323.7C542.9 311.6 525.9 278.3 525.9 249.4C525.9 220.5 542.9 206.9 563.9 219C584.9 231.1 601.9 264.4 601.9 293.3Z" fill="white"/>
<path opacity="0.1" d="M594.4 783.6C585.7 769.4 581.5 751.4 577.8 735.6C573.5 717.4 569.9 701.9 560.9 698C550.6 693.5 546 704.9 539.5 720.7C535.7 730 531.2 741 524.6 751.1C517.5 743.6 510 737.4 502.1 732.9C469 713.8 441.4 730.3 434.9 769.7C430.4 766.3 425.9 763.2 421.3 760.5C368.2 729.9 325.2 764.6 325.2 838.2C325.2 911.7 368.2 996.1 421.2 1026.7C472.7 1056.4 514.8 1024.5 517.2 955.4C526.9 973.4 539.8 988.5 554.1 996.7C557.8 998.8 561.4 1000.4 564.8 1001.4C585.4 1046.7 616.1 1085.7 650.4 1105.5C712.4 1141.3 762.7 1100.9 762.8 1015.3C762.8 929.7 712.5 831.2 650.5 795.4C630 783.6 610.9 780 594.4 783.6Z" fill="url(#paint3_linear)"/>
<path opacity="0.3" d="M694.3 456.2L965 612.5L965.1 753.6L718.3 611.1L694.4 618.9L694.3 456.2Z" fill="url(#paint4_linear)"/>
<path d="M886.3 637.3V599L988.5 658V696.3L886.3 637.3Z" fill="#F2C94C"/>
<path opacity="0.1" d="M763.9 530.7L823.2 564.9V577.3L763.9 543.1V530.7Z" fill="white"/>
<path opacity="0.1" d="M764 555.5L871 617.3V629.7L764 567.9V555.5Z" fill="white"/>
<path opacity="0.15" d="M764 580.3L902.5 660.3V672.7L764 592.7V580.3Z" fill="white"/>
<path d="M749.3 535.2C749.3 546.8 742.4 552.3 733.9 547.4C725.4 542.5 718.5 529.1 718.5 517.5C718.5 505.9 725.4 500.4 733.9 505.3C742.5 510.2 749.3 523.6 749.3 535.2Z" fill="#F2C94C"/>
<path opacity="0.3" d="M460.8 256.9L190.1 100.7L190.2 241.8L437 384.2L460.9 419.6L460.8 256.9Z" fill="url(#paint5_linear)"/>
<path d="M161.2 155.7V117.4L263.4 176.4V214.7L161.2 155.7Z" fill="#F2994A"/>
<path opacity="0.15" d="M391.2 251.1L331.9 216.9V229.3L391.2 263.5V251.1Z" fill="white"/>
<path opacity="0.15" d="M391.2 275.9L276.9 209.9V222.3L391.2 288.3V275.9Z" fill="white"/>
<path opacity="0.15" d="M391.2 300.7L252.7 220.7V233.1L391.2 313.1V300.7Z" fill="white"/>
<path d="M405.8 272.4C405.8 284 412.7 297.4 421.2 302.3C429.7 307.2 436.6 301.7 436.6 290.1C436.6 278.5 429.7 265.1 421.2 260.2C412.7 255.4 405.8 260.8 405.8 272.4Z" fill="#F2994A"/>
<path opacity="0.2" d="M424.8 407.5L263.1 314.2V398.4L424.8 491.7V407.5Z" fill="url(#paint6_linear)"/>
<path opacity="0.15" d="M304.5 358.3L359.9 390.3V400.4L304.5 368.4V358.3Z" fill="white"/>
<path opacity="0.15" d="M304.5 378.6L408.1 438.4V448.6L304.5 388.8V378.6Z" fill="white"/>
<path d="M296 361.3C296 368.2 291.9 371.5 286.8 368.6C281.7 365.7 277.6 357.7 277.6 350.7C277.6 343.8 281.7 340.5 286.8 343.4C291.8 346.4 296 354.4 296 361.3Z" fill="#F2994A"/>
<path opacity="0.2" d="M905 471.1L743.3 377.8V462L905 555.4V471.1Z" fill="url(#paint7_linear)"/>
<path opacity="0.15" d="M784.7 422L840.1 454V464.1L784.7 432.1V422Z" fill="white"/>
<path opacity="0.15" d="M784.8 442.3L888.4 502.1V512.3L784.8 452.5V442.3Z" fill="white"/>
<path d="M776.2 425C776.2 431.9 772.1 435.2 767 432.3C761.9 429.4 757.8 421.4 757.8 414.4C757.8 407.5 761.9 404.2 767 407.1C772.1 410.1 776.2 418.1 776.2 425Z" fill="#F2C94C"/>
<defs>
<linearGradient id="paint0_linear" x1="709.194" y1="143.027" x2="398.343" y2="681.58" gradientUnits="userSpaceOnUse">
<stop stop-color="white"/>
<stop offset="1" stop-color="white" stop-opacity="0"/>
</linearGradient>
<linearGradient id="paint1_linear" x1="745.585" y1="115.734" x2="434.734" y2="654.287" gradientUnits="userSpaceOnUse">
<stop stop-color="white"/>
<stop offset="1" stop-color="white" stop-opacity="0"/>
</linearGradient>
<linearGradient id="paint2_linear" x1="651.226" y1="260.462" x2="411.263" y2="693.442" gradientUnits="userSpaceOnUse">
<stop stop-color="white" stop-opacity="0"/>
<stop offset="1" stop-color="white"/>
</linearGradient>
<linearGradient id="paint3_linear" x1="628.652" y1="782.819" x2="494.389" y2="1015.43" gradientUnits="userSpaceOnUse">
<stop stop-color="white"/>
<stop offset="1" stop-color="white" stop-opacity="0"/>
</linearGradient>
<linearGradient id="paint4_linear" x1="810.61" y1="460.769" x2="845.61" y2="744.635" gradientUnits="userSpaceOnUse">
<stop stop-color="white"/>
<stop offset="1" stop-color="white" stop-opacity="0"/>
</linearGradient>
<linearGradient id="paint5_linear" x1="401.766" y1="200.4" x2="261.984" y2="309.845" gradientUnits="userSpaceOnUse">
<stop stop-color="white"/>
<stop offset="1" stop-color="white" stop-opacity="0"/>
</linearGradient>
<linearGradient id="paint6_linear" x1="362.169" y1="371.327" x2="325.703" y2="434.504" gradientUnits="userSpaceOnUse">
<stop stop-color="white"/>
<stop offset="1" stop-color="white" stop-opacity="0"/>
</linearGradient>
<linearGradient id="paint7_linear" x1="842.431" y1="435.004" x2="805.965" y2="498.181" gradientUnits="userSpaceOnUse">
<stop stop-color="white"/>
<stop offset="1" stop-color="white" stop-opacity="0"/>
</linearGradient>
</defs>
</svg>
